<svg width="32" height="32" viewBox="0 0 32 32" fill="none" xmlns="http://www.w3.org/2000/svg">
<path fill-rule="evenodd" clip-rule="evenodd" d="M23.4509 15.1692V21.1796C23.4509 22.0166 22.7933 22.6743 21.9563 22.6743C21.1486 22.6743 20.4915 22.0166 20.4915 21.1796V15.1692C20.4915 12.6577 18.4578 10.6246 15.9458 10.6246C13.4344 10.6246 11.4013 12.6577 11.4013 15.1692V21.1796C11.4013 22.0166 10.7436 22.6743 9.90608 22.6743C9.09891 22.6743 8.44125 22.0166 8.44125 21.1796V15.1692C8.44125 11.0136 11.82 7.66405 15.9458 7.66405C20.0722 7.66405 23.4509 11.0136 23.4509 15.1692Z" fill="white"/>
<path fill-rule="evenodd" clip-rule="evenodd" d="M30.4256 15.9391C30.4256 23.9231 23.9301 30.4185 15.9461 30.4185C7.96213 30.4185 1.46668 23.9231 1.46668 15.9391C1.46668 7.95508 7.96213 1.45963 15.9461 1.45963C23.9301 1.45963 30.4256 7.95508 30.4256 15.9391ZM15.9461 0.206665C7.27082 0.206665 0.213715 7.26377 0.213715 15.9391C0.213715 24.6144 7.27082 31.6715 15.9461 31.6715C24.6209 31.6715 31.6785 24.6144 31.6785 15.9391C31.6785 7.26377 24.6209 0.206665 15.9461 0.206665Z" fill="white"/>
</svg>
