<svg width="131" height="131" viewBox="0 0 131 131" fill="none" xmlns="http://www.w3.org/2000/svg">
<path fill-rule="evenodd" clip-rule="evenodd" d="M65.5 121.988C96.6972 121.988 121.988 96.6972 121.988 65.5C121.988 34.3028 96.6972 9.01242 65.5 9.01242C34.3028 9.01242 9.01242 34.3028 9.01242 65.5C9.01242 96.6972 34.3028 121.988 65.5 121.988Z" fill="#F5F5F5"/>
<path opacity="0.495675" fill-rule="evenodd" clip-rule="evenodd" d="M65.5 130C101.122 130 130 101.122 130 65.5C130 29.8776 101.122 1 65.5 1C29.8776 1 1 29.8776 1 65.5C1 101.122 29.8776 130 65.5 130Z" stroke="#EBEBEB" stroke-width="2" stroke-dasharray="6"/>
<path fill-rule="evenodd" clip-rule="evenodd" d="M66.6776 62.2083C72.5271 62.2083 77.2682 57.4326 77.2682 51.5424C77.2682 45.6521 72.5262 40.8773 66.6776 40.8773C60.8291 40.8773 56.0853 45.653 56.0853 51.5433C56.0853 57.4335 60.8291 62.2083 66.6776 62.2083Z" fill="#8544D2"/>
<path fill-rule="evenodd" clip-rule="evenodd" d="M70.1881 64.5783H60.8146C53.0156 64.5783 46.6707 70.7729 46.6707 78.3861V89.5759L46.6999 89.7512L47.4894 89.9925C54.9322 92.2626 61.3983 93.0196 66.7205 93.0196C77.1157 93.0196 83.141 90.1265 83.5123 89.9421L84.2501 89.5778H84.3291V78.3861C84.3319 70.7729 77.9871 64.5783 70.1881 64.5783Z" fill="#8544D2"/>
</svg>
